<svg width="13" height="15" viewBox="0 0 13 15" fill="none" xmlns="http://www.w3.org/2000/svg">
<path fill-rule="evenodd" clip-rule="evenodd" d="M4.53023 0.00634459C4.68154 -0.0233252 4.82297 0.0539148 4.89197 0.178522C4.95858 0.299215 4.95251 0.451176 4.87307 0.565827C4.07819 1.73717 3.60956 3.1809 3.60956 4.75259C3.60956 8.66868 6.52014 11.8132 10.083 11.8132C10.9426 11.8132 11.7642 11.6267 12.5157 11.2946C12.6693 11.2229 12.8419 11.2788 12.9337 11.4091C13.022 11.5346 13.022 11.7051 12.9342 11.8307C11.6333 13.7467 9.53134 15 7.16048 15C3.19109 15 0 11.4995 0 7.22546C0 3.98053 1.83746 1.19165 4.45833 0.0308891C4.47952 0.0207905 4.50071 0.0135052 4.52129 0.00834225L4.53023 0.00634459Z" fill="#213B86"/>
</svg>
